<?plantuml 1.2026.2?><svg xmlns="http://www.w3.org/2000/svg" xmlns:xlink="http://www.w3.org/1999/xlink" contentStyleType="text/css" data-diagram-type="DESCRIPTION" height="914px" preserveAspectRatio="none" style="width:1683px;height:914px;background:#FFFFFF;" version="1.1" viewBox="0 0 1683 914" width="1683px" zoomAndPan="magnify"><title>Password Engine - Intended High-Level Architecture</title><defs/><g><g class="title" data-source-line="2"><text fill="#000000" font-family="sans-serif" font-size="14" font-weight="bold" lengthAdjust="spacing" textLength="349.2986" x="660.1807" y="23.0059">Password Engine - Intended High-Level Architecture</text></g><!--cluster Entrypoints--><g class="cluster" data-qualified-name="Entrypoints" data-source-line="4" id="ent0002"><path d="M8.5,728.0939 L87.2837,728.0939 A3.75,3.75 0 0 1 89.7837,730.5939 L96.7837,750.8938 L125.3,750.8938 A2.5,2.5 0 0 1 127.8,753.3938 L127.8,904.5939 A2.5,2.5 0 0 1 125.3,907.0939 L8.5,907.0939 A2.5,2.5 0 0 1 6,904.5939 L6,730.5939 A2.5,2.5 0 0 1 8.5,728.0939" fill="none" style="stroke:#000000;stroke-width:1.5;"/><line style="stroke:#000000;stroke-width:1.5;" x1="6" x2="96.7837" y1="750.8938" y2="750.8938"/><text fill="#000000" font-family="sans-serif" font-size="14" font-weight="bold" lengthAdjust="spacing" textLength="77.7837" x="10" y="743.0999">Entrypoints</text></g><!--cluster Command Layer--><g class="cluster" data-qualified-name="Command Layer" data-source-line="9" id="ent0005"><path d="M158.3,532.0939 L268.9896,532.0939 A3.75,3.75 0 0 1 271.4896,534.5939 L278.4896,554.8938 L1041.13,554.8938 A2.5,2.5 0 0 1 1043.63,557.3938 L1043.63,790.5939 A2.5,2.5 0 0 1 1041.13,793.0939 L158.3,793.0939 A2.5,2.5 0 0 1 155.8,790.5939 L155.8,534.5939 A2.5,2.5 0 0 1 158.3,532.0939" fill="none" style="stroke:#000000;stroke-width:1.5;"/><line style="stroke:#000000;stroke-width:1.5;" x1="155.8" x2="278.4896" y1="554.8938" y2="554.8938"/><text fill="#000000" font-family="sans-serif" font-size="14" font-weight="bold" lengthAdjust="spacing" textLength="109.6896" x="159.8" y="547.0999">Command Layer</text></g><!--cluster Core--><g class="cluster" data-qualified-name="Core" data-source-line="18" id="ent0012"><path d="M1074.13,614.0939 L1107.0219,614.0939 A3.75,3.75 0 0 1 1109.5219,616.5939 L1116.5219,636.8938 L1166.03,636.8938 A2.5,2.5 0 0 1 1168.53,639.3938 L1168.53,708.5939 A2.5,2.5 0 0 1 1166.03,711.0939 L1074.13,711.0939 A2.5,2.5 0 0 1 1071.63,708.5939 L1071.63,616.5939 A2.5,2.5 0 0 1 1074.13,614.0939" fill="none" style="stroke:#000000;stroke-width:1.5;"/><line style="stroke:#000000;stroke-width:1.5;" x1="1071.63" x2="1116.5219" y1="636.8938" y2="636.8938"/><text fill="#000000" font-family="sans-serif" font-size="14" font-weight="bold" lengthAdjust="spacing" textLength="31.8919" x="1075.63" y="629.0999">Core</text></g><!--cluster Execution--><g class="cluster" data-qualified-name="Execution" data-source-line="22" id="ent0014"><path d="M1199.03,532.0939 L1266.9357,532.0939 A3.75,3.75 0 0 1 1269.4357,534.5939 L1276.4357,554.8938 L1622.41,554.8938 A2.5,2.5 0 0 1 1624.91,557.3938 L1624.91,790.5939 A2.5,2.5 0 0 1 1622.41,793.0939 L1199.03,793.0939 A2.5,2.5 0 0 1 1196.53,790.5939 L1196.53,534.5939 A2.5,2.5 0 0 1 1199.03,532.0939" fill="none" style="stroke:#000000;stroke-width:1.5;"/><line style="stroke:#000000;stroke-width:1.5;" x1="1196.53" x2="1276.4357" y1="554.8938" y2="554.8938"/><text fill="#000000" font-family="sans-serif" font-size="14" font-weight="bold" lengthAdjust="spacing" textLength="66.9057" x="1200.53" y="547.0999">Execution</text></g><!--cluster Security / Services--><g class="cluster" data-qualified-name="Security . Services" data-source-line="29" id="ent0019"><path d="M1467.87,165.0939 L1593.3855,165.0939 A3.75,3.75 0 0 1 1595.8855,167.5939 L1602.8855,187.8938 L1674.16,187.8938 A2.5,2.5 0 0 1 1676.66,190.3938 L1676.66,505.5939 A2.5,2.5 0 0 1 1674.16,508.0939 L1467.87,508.0939 A2.5,2.5 0 0 1 1465.37,505.5939 L1465.37,167.5939 A2.5,2.5 0 0 1 1467.87,165.0939" fill="none" style="stroke:#000000;stroke-width:1.5;"/><line style="stroke:#000000;stroke-width:1.5;" x1="1465.37" x2="1602.8855" y1="187.8938" y2="187.8938"/><text fill="#000000" font-family="sans-serif" font-size="14" font-weight="bold" lengthAdjust="spacing" textLength="124.5155" x="1469.37" y="180.0999">Security / Services</text></g><!--cluster Storage--><g class="cluster" data-qualified-name="Storage" data-source-line="36" id="ent0024"><path d="M1505.11,44.0939 L1558.2318,44.0939 A3.75,3.75 0 0 1 1560.7318,46.5939 L1567.7318,66.8938 L1636.91,66.8938 A2.5,2.5 0 0 1 1639.41,69.3938 L1639.41,138.5939 A2.5,2.5 0 0 1 1636.91,141.0939 L1505.11,141.0939 A2.5,2.5 0 0 1 1502.61,138.5939 L1502.61,46.5939 A2.5,2.5 0 0 1 1505.11,44.0939" fill="none" style="stroke:#000000;stroke-width:1.5;"/><line style="stroke:#000000;stroke-width:1.5;" x1="1502.61" x2="1567.7318" y1="66.8938" y2="66.8938"/><text fill="#000000" font-family="sans-serif" font-size="14" font-weight="bold" lengthAdjust="spacing" textLength="52.1218" x="1506.61" y="59.0999">Storage</text></g><!--entity CLI--><g class="entity" data-qualified-name="Entrypoints.CLI" data-source-line="5" id="ent0003"><rect fill="#F1F1F1" height="46.7999" rx="2.5" ry="2.5" style="stroke:#181818;stroke-width:0.5;" width="61.7839" x="36.01" y="844.6939"/><rect fill="#F1F1F1" height="10" style="stroke:#181818;stroke-width:0.5;" width="15" x="77.7939" y="849.6939"/><rect fill="#F1F1F1" height="2" style="stroke:#181818;stroke-width:0.5;" width="4" x="75.7939" y="851.6939"/><rect fill="#F1F1F1" height="2" style="stroke:#181818;stroke-width:0.5;" width="4" x="75.7939" y="855.6939"/><text fill="#000000" font-family="sans-serif" font-size="14" lengthAdjust="spacing" textLength="21.7839" x="51.01" y="877.6999">CLI</text></g><!--entity FastAPI--><g class="entity" data-qualified-name="Entrypoints.FastAPI" data-source-line="6" id="ent0004"><rect fill="#F1F1F1" height="46.7999" rx="2.5" ry="2.5" style="stroke:#181818;stroke-width:0.5;" width="89.7978" x="22" y="762.6939"/><rect fill="#F1F1F1" height="10" style="stroke:#181818;stroke-width:0.5;" width="15" x="91.7978" y="767.6939"/><rect fill="#F1F1F1" height="2" style="stroke:#181818;stroke-width:0.5;" width="4" x="89.7978" y="769.6939"/><rect fill="#F1F1F1" height="2" style="stroke:#181818;stroke-width:0.5;" width="4" x="89.7978" y="773.6939"/><text fill="#000000" font-family="sans-serif" font-size="14" lengthAdjust="spacing" textLength="49.7978" x="37" y="795.6999">FastAPI</text></g><!--entity FrontendCommandInput--><g class="entity" data-qualified-name="Command Layer.FrontendCommandInput" data-source-line="10" id="ent0006"><rect fill="#F1F1F1" height="46.7999" rx="2.5" ry="2.5" style="stroke:#181818;stroke-width:0.5;" width="191.7314" x="171.8" y="730.6939"/><rect fill="#F1F1F1" height="10" style="stroke:#181818;stroke-width:0.5;" width="15" x="343.5314" y="735.6939"/><rect fill="#F1F1F1" height="2" style="stroke:#181818;stroke-width:0.5;" width="4" x="341.5314" y="737.6939"/><rect fill="#F1F1F1" height="2" style="stroke:#181818;stroke-width:0.5;" width="4" x="341.5314" y="741.6939"/><text fill="#000000" font-family="sans-serif" font-size="14" lengthAdjust="spacing" textLength="151.7314" x="186.8" y="763.6999">FrontendCommandInput</text></g><!--entity build_commands()--><g class="entity" data-qualified-name="Command Layer.build_commands.." data-source-line="11" id="ent0007"><rect fill="#F1F1F1" height="46.7999" rx="2.5" ry="2.5" style="stroke:#181818;stroke-width:0.5;" width="155.1355" x="423.53" y="689.6939"/><rect fill="#F1F1F1" height="10" style="stroke:#181818;stroke-width:0.5;" width="15" x="558.6655" y="694.6939"/><rect fill="#F1F1F1" height="2" style="stroke:#181818;stroke-width:0.5;" width="4" x="556.6655" y="696.6939"/><rect fill="#F1F1F1" height="2" style="stroke:#181818;stroke-width:0.5;" width="4" x="556.6655" y="700.6939"/><text fill="#000000" font-family="sans-serif" font-size="14" lengthAdjust="spacing" textLength="115.1355" x="438.53" y="722.6999">build_commands()</text></g><!--entity Command--><g class="entity" data-qualified-name="Command Layer.Command" data-source-line="12" id="ent0008"><rect fill="#F1F1F1" height="46.7999" rx="2.5" ry="2.5" style="stroke:#181818;stroke-width:0.5;" width="104.5677" x="638.66" y="669.6939"/><rect fill="#F1F1F1" height="10" style="stroke:#181818;stroke-width:0.5;" width="15" x="723.2277" y="674.6939"/><rect fill="#F1F1F1" height="2" style="stroke:#181818;stroke-width:0.5;" width="4" x="721.2277" y="676.6939"/><rect fill="#F1F1F1" height="2" style="stroke:#181818;stroke-width:0.5;" width="4" x="721.2277" y="680.6939"/><text fill="#000000" font-family="sans-serif" font-size="14" lengthAdjust="spacing" textLength="64.5677" x="653.66" y="702.6999">Command</text></g><!--entity CreateUserCommand--><g class="entity" data-qualified-name="Command Layer.CreateUserCommand" data-source-line="13" id="ent0009"><rect fill="#F1F1F1" height="46.7999" rx="2.5" ry="2.5" style="stroke:#181818;stroke-width:0.5;" width="176.1354" x="827.36" y="566.6939"/><rect fill="#F1F1F1" height="10" style="stroke:#181818;stroke-width:0.5;" width="15" x="983.4954" y="571.6939"/><rect fill="#F1F1F1" height="2" style="stroke:#181818;stroke-width:0.5;" width="4" x="981.4954" y="573.6939"/><rect fill="#F1F1F1" height="2" style="stroke:#181818;stroke-width:0.5;" width="4" x="981.4954" y="577.6939"/><text fill="#000000" font-family="sans-serif" font-size="14" lengthAdjust="spacing" textLength="136.1354" x="842.36" y="599.6999">CreateUserCommand</text></g><!--entity ListPasswordsCommand--><g class="entity" data-qualified-name="Command Layer.ListPasswordsCommand" data-source-line="14" id="ent0010"><rect fill="#F1F1F1" height="46.7999" rx="2.5" ry="2.5" style="stroke:#181818;stroke-width:0.5;" width="194.8114" x="818.02" y="730.6939"/><rect fill="#F1F1F1" height="10" style="stroke:#181818;stroke-width:0.5;" width="15" x="992.8314" y="735.6939"/><rect fill="#F1F1F1" height="2" style="stroke:#181818;stroke-width:0.5;" width="4" x="990.8314" y="737.6939"/><rect fill="#F1F1F1" height="2" style="stroke:#181818;stroke-width:0.5;" width="4" x="990.8314" y="741.6939"/><text fill="#000000" font-family="sans-serif" font-size="14" lengthAdjust="spacing" textLength="154.8114" x="833.02" y="763.6999">ListPasswordsCommand</text></g><!--entity GeneratePasswordCommand--><g class="entity" data-qualified-name="Command Layer.GeneratePasswordCommand" data-source-line="15" id="ent0011"><rect fill="#F1F1F1" height="46.7999" rx="2.5" ry="2.5" style="stroke:#181818;stroke-width:0.5;" width="224.3932" x="803.23" y="648.6939"/><rect fill="#F1F1F1" height="10" style="stroke:#181818;stroke-width:0.5;" width="15" x="1007.6232" y="653.6939"/><rect fill="#F1F1F1" height="2" style="stroke:#181818;stroke-width:0.5;" width="4" x="1005.6232" y="655.6939"/><rect fill="#F1F1F1" height="2" style="stroke:#181818;stroke-width:0.5;" width="4" x="1005.6232" y="659.6939"/><text fill="#000000" font-family="sans-serif" font-size="14" lengthAdjust="spacing" textLength="184.3932" x="818.23" y="681.6999">GeneratePasswordCommand</text></g><!--entity App--><g class="entity" data-qualified-name="Core.App" data-source-line="19" id="ent0013"><rect fill="#F1F1F1" height="46.7999" rx="2.5" ry="2.5" style="stroke:#181818;stroke-width:0.5;" width="64.9059" x="1087.63" y="648.6939"/><rect fill="#F1F1F1" height="10" style="stroke:#181818;stroke-width:0.5;" width="15" x="1132.5359" y="653.6939"/><rect fill="#F1F1F1" height="2" style="stroke:#181818;stroke-width:0.5;" width="4" x="1130.5359" y="655.6939"/><rect fill="#F1F1F1" height="2" style="stroke:#181818;stroke-width:0.5;" width="4" x="1130.5359" y="659.6939"/><text fill="#000000" font-family="sans-serif" font-size="14" lengthAdjust="spacing" textLength="24.9059" x="1102.63" y="681.6999">App</text></g><!--entity CreateUserHandler--><g class="entity" data-qualified-name="Execution.CreateUserHandler" data-source-line="23" id="ent0015"><rect fill="#F1F1F1" height="46.7999" rx="2.5" ry="2.5" style="stroke:#181818;stroke-width:0.5;" width="160.5815" x="1236.66" y="730.6939"/><rect fill="#F1F1F1" height="10" style="stroke:#181818;stroke-width:0.5;" width="15" x="1377.2415" y="735.6939"/><rect fill="#F1F1F1" height="2" style="stroke:#181818;stroke-width:0.5;" width="4" x="1375.2415" y="737.6939"/><rect fill="#F1F1F1" height="2" style="stroke:#181818;stroke-width:0.5;" width="4" x="1375.2415" y="741.6939"/><text fill="#000000" font-family="sans-serif" font-size="14" lengthAdjust="spacing" textLength="120.5815" x="1251.66" y="763.6999">CreateUserHandler</text></g><!--entity ListPasswordsHandler--><g class="entity" data-qualified-name="Execution.ListPasswordsHandler" data-source-line="24" id="ent0016"><rect fill="#F1F1F1" height="46.7999" rx="2.5" ry="2.5" style="stroke:#181818;stroke-width:0.5;" width="179.2574" x="1227.32" y="648.6939"/><rect fill="#F1F1F1" height="10" style="stroke:#181818;stroke-width:0.5;" width="15" x="1386.5774" y="653.6939"/><rect fill="#F1F1F1" height="2" style="stroke:#181818;stroke-width:0.5;" width="4" x="1384.5774" y="655.6939"/><rect fill="#F1F1F1" height="2" style="stroke:#181818;stroke-width:0.5;" width="4" x="1384.5774" y="659.6939"/><text fill="#000000" font-family="sans-serif" font-size="14" lengthAdjust="spacing" textLength="139.2574" x="1242.32" y="681.6999">ListPasswordsHandler</text></g><!--entity GeneratePasswordHandler--><g class="entity" data-qualified-name="Execution.GeneratePasswordHandler" data-source-line="25" id="ent0017"><rect fill="#F1F1F1" height="46.7999" rx="2.5" ry="2.5" style="stroke:#181818;stroke-width:0.5;" width="208.8393" x="1212.53" y="566.6939"/><rect fill="#F1F1F1" height="10" style="stroke:#181818;stroke-width:0.5;" width="15" x="1401.3693" y="571.6939"/><rect fill="#F1F1F1" height="2" style="stroke:#181818;stroke-width:0.5;" width="4" x="1399.3693" y="573.6939"/><rect fill="#F1F1F1" height="2" style="stroke:#181818;stroke-width:0.5;" width="4" x="1399.3693" y="577.6939"/><text fill="#000000" font-family="sans-serif" font-size="14" lengthAdjust="spacing" textLength="168.8393" x="1227.53" y="599.6999">GeneratePasswordHandler</text></g><!--entity Event--><g class="entity" data-qualified-name="Execution.Event" data-source-line="26" id="ent0018"><rect fill="#F1F1F1" height="46.7999" rx="2.5" ry="2.5" style="stroke:#181818;stroke-width:0.5;" width="75.7979" x="1533.11" y="730.6939"/><rect fill="#F1F1F1" height="10" style="stroke:#181818;stroke-width:0.5;" width="15" x="1588.9079" y="735.6939"/><rect fill="#F1F1F1" height="2" style="stroke:#181818;stroke-width:0.5;" width="4" x="1586.9079" y="737.6939"/><rect fill="#F1F1F1" height="2" style="stroke:#181818;stroke-width:0.5;" width="4" x="1586.9079" y="741.6939"/><text fill="#000000" font-family="sans-serif" font-size="14" lengthAdjust="spacing" textLength="35.7979" x="1548.11" y="763.6999">Event</text></g><!--entity Authentication Service--><g class="entity" data-qualified-name="Security . Services.Authentication Service" data-source-line="30" id="ent0020"><rect fill="#F1F1F1" height="46.7999" rx="2.5" ry="2.5" style="stroke:#181818;stroke-width:0.5;" width="179.2854" x="1481.37" y="445.6939"/><rect fill="#F1F1F1" height="10" style="stroke:#181818;stroke-width:0.5;" width="15" x="1640.6554" y="450.6939"/><rect fill="#F1F1F1" height="2" style="stroke:#181818;stroke-width:0.5;" width="4" x="1638.6554" y="452.6939"/><rect fill="#F1F1F1" height="2" style="stroke:#181818;stroke-width:0.5;" width="4" x="1638.6554" y="456.6939"/><text fill="#000000" font-family="sans-serif" font-size="14" lengthAdjust="spacing" textLength="139.2854" x="1496.37" y="478.6999">Authentication Service</text></g><!--entity Key Derivation--><g class="entity" data-qualified-name="Security . Services.Key Derivation" data-source-line="31" id="ent0021"><rect fill="#F1F1F1" height="46.7999" rx="2.5" ry="2.5" style="stroke:#181818;stroke-width:0.5;" width="131.0276" x="1505.5" y="281.6939"/><rect fill="#F1F1F1" height="10" style="stroke:#181818;stroke-width:0.5;" width="15" x="1616.5276" y="286.6939"/><rect fill="#F1F1F1" height="2" style="stroke:#181818;stroke-width:0.5;" width="4" x="1614.5276" y="288.6939"/><rect fill="#F1F1F1" height="2" style="stroke:#181818;stroke-width:0.5;" width="4" x="1614.5276" y="292.6939"/><text fill="#000000" font-family="sans-serif" font-size="14" lengthAdjust="spacing" textLength="91.0276" x="1520.5" y="314.6999">Key Derivation</text></g><!--entity Encryption Service--><g class="entity" data-qualified-name="Security . Services.Encryption Service" data-source-line="32" id="ent0022"><rect fill="#F1F1F1" height="46.7999" rx="2.5" ry="2.5" style="stroke:#181818;stroke-width:0.5;" width="156.7035" x="1492.66" y="363.6939"/><rect fill="#F1F1F1" height="10" style="stroke:#181818;stroke-width:0.5;" width="15" x="1629.3635" y="368.6939"/><rect fill="#F1F1F1" height="2" style="stroke:#181818;stroke-width:0.5;" width="4" x="1627.3635" y="370.6939"/><rect fill="#F1F1F1" height="2" style="stroke:#181818;stroke-width:0.5;" width="4" x="1627.3635" y="374.6939"/><text fill="#000000" font-family="sans-serif" font-size="14" lengthAdjust="spacing" textLength="116.7035" x="1507.66" y="396.6999">Encryption Service</text></g><!--entity Password Generator--><g class="entity" data-qualified-name="Security . Services.Password Generator" data-source-line="33" id="ent0023"><rect fill="#F1F1F1" height="46.7999" rx="2.5" ry="2.5" style="stroke:#181818;stroke-width:0.5;" width="168.3795" x="1486.82" y="199.6939"/><rect fill="#F1F1F1" height="10" style="stroke:#181818;stroke-width:0.5;" width="15" x="1635.1995" y="204.6939"/><rect fill="#F1F1F1" height="2" style="stroke:#181818;stroke-width:0.5;" width="4" x="1633.1995" y="206.6939"/><rect fill="#F1F1F1" height="2" style="stroke:#181818;stroke-width:0.5;" width="4" x="1633.1995" y="210.6939"/><text fill="#000000" font-family="sans-serif" font-size="14" lengthAdjust="spacing" textLength="128.3795" x="1501.82" y="232.6999">Password Generator</text></g><!--entity DB--><g class="entity" data-qualified-name="Storage.DB" data-source-line="37" id="ent0025"><path d="M1518.61,89.1939 C1518.61,79.1939 1571.0088,79.1939 1571.0088,79.1939 C1571.0088,79.1939 1623.4077,79.1939 1623.4077,89.1939 L1623.4077,114.9938 C1623.4077,124.9938 1571.0088,124.9938 1571.0088,124.9938 C1571.0088,124.9938 1518.61,124.9938 1518.61,114.9938 L1518.61,89.1939" fill="#F1F1F1" style="stroke:#181818;stroke-width:0.5;"/><path d="M1518.61,89.1939 C1518.61,99.1939 1571.0088,99.1939 1571.0088,99.1939 C1571.0088,99.1939 1623.4077,99.1939 1623.4077,89.1939" fill="none" style="stroke:#181818;stroke-width:0.5;"/><text fill="#000000" font-family="sans-serif" font-size="14" lengthAdjust="spacing" textLength="84.7977" x="1528.61" y="116.1999">Password DB</text></g><!--link CLI to FrontendCommandInput--><g class="link" data-entity-1="ent0003" data-entity-2="ent0006" data-link-type="dependency" data-source-line="40" id="lnk26"><path d="M98.09,850.7839 C131.97,831.3439 181.9553,802.679 219.8953,780.919" fill="none" id="CLI-to-FrontendCommandInput" style="stroke:#181818;stroke-width:1;"/><polygon fill="#181818" points="225.1,777.9339,215.3028,778.9417,220.7627,780.4215,219.283,785.8814,225.1,777.9339" style="stroke:#181818;stroke-width:1;"/></g><!--link FastAPI to FrontendCommandInput--><g class="link" data-entity-1="ent0004" data-entity-2="ent0006" data-link-type="dependency" data-source-line="41" id="lnk27"><path d="M112.01,778.9939 C129.62,776.1539 144.7061,773.7265 165.4761,770.3865" fill="none" id="FastAPI-to-FrontendCommandInput" style="stroke:#181818;stroke-width:1;"/><polygon fill="#181818" points="171.4,769.4339,161.8791,766.9136,166.4634,770.2278,163.1492,774.8121,171.4,769.4339" style="stroke:#181818;stroke-width:1;"/></g><!--link FrontendCommandInput to build_commands()--><g class="link" data-entity-1="ent0006" data-entity-2="ent0007" data-link-type="dependency" data-source-line="43" id="lnk28"><path d="M363.8,737.2439 C383.62,733.7239 398.3722,731.1216 417.4322,727.7416" fill="none" id="FrontendCommandInput-to-build_commands()" style="stroke:#181818;stroke-width:1;"/><polygon fill="#181818" points="423.34,726.6939,413.7798,724.3269,418.4168,727.567,415.1767,732.204,423.34,726.6939" style="stroke:#181818;stroke-width:1;"/></g><!--link build_commands() to Command--><g class="link" data-entity-1="ent0007" data-entity-2="ent0008" data-link-type="dependency" data-source-line="44" id="lnk29"><path d="M579.05,704.9039 C599.01,702.7739 614.0634,701.1664 632.3634,699.2264" fill="none" id="build_commands()-to-Command" style="stroke:#181818;stroke-width:1;"/><polygon fill="#181818" points="638.33,698.5939,628.9585,695.565,633.3579,699.121,629.8018,703.5204,638.33,698.5939" style="stroke:#181818;stroke-width:1;"/></g><!--link Command to CreateUserCommand--><g class="link" data-entity-1="ent0008" data-entity-2="ent0009" data-link-type="dependency" data-source-line="46" id="lnk30"><path d="M731.09,669.3239 C752.08,657.0939 778.62,642.4039 803.23,631.0939 C816.41,625.0339 825.1607,621.3337 839.0407,616.0637" fill="none" id="Command-to-CreateUserCommand" style="stroke:#181818;stroke-width:1;"/><polygon fill="#181818" points="844.65,613.9339,834.8162,613.389,839.9756,615.7087,837.6559,620.8681,844.65,613.9339" style="stroke:#181818;stroke-width:1;"/></g><!--link Command to ListPasswordsCommand--><g class="link" data-entity-1="ent0008" data-entity-2="ent0010" data-link-type="dependency" data-source-line="47" id="lnk31"><path d="M743.55,707.2439 C768.45,714.0739 793.2333,720.8685 821.5933,728.6385" fill="none" id="Command-to-ListPasswordsCommand" style="stroke:#181818;stroke-width:1;"/><polygon fill="#181818" points="827.38,730.2239,819.7568,723.9879,822.5577,728.9027,817.6429,731.7036,827.38,730.2239" style="stroke:#181818;stroke-width:1;"/></g><!--link Command to GeneratePasswordCommand--><g class="link" data-entity-1="ent0008" data-entity-2="ent0011" data-link-type="dependency" data-source-line="48" id="lnk32"><path d="M743.55,688.2239 C761.39,686.5439 776.1666,685.1479 796.9266,683.1879" fill="none" id="Command-to-GeneratePasswordCommand" style="stroke:#181818;stroke-width:1;"/><polygon fill="#181818" points="802.9,682.6239,793.5639,679.4876,797.9221,683.0939,794.3158,687.4522,802.9,682.6239" style="stroke:#181818;stroke-width:1;"/></g><!--link CreateUserCommand to App--><g class="link" data-entity-1="ent0009" data-entity-2="ent0013" data-link-type="dependency" data-source-line="50" id="lnk33"><path d="M1003.8,613.0539 C1019.97,618.2939 1036.51,624.3339 1051.63,631.0939 C1063.76,636.5139 1071.3002,640.5368 1082.2902,647.3968" fill="none" id="CreateUserCommand-to-App" style="stroke:#181818;stroke-width:1;"/><polygon fill="#181818" points="1087.38,650.5739,1081.8633,642.4151,1083.1385,647.9263,1077.6272,649.2015,1087.38,650.5739" style="stroke:#181818;stroke-width:1;"/></g><!--link ListPasswordsCommand to App--><g class="link" data-entity-1="ent0010" data-entity-2="ent0013" data-link-type="dependency" data-source-line="51" id="lnk34"><path d="M1006.32,730.3039 C1021.68,725.2639 1037.29,719.5039 1051.63,713.0939 C1063.76,707.6739 1071.3002,703.651 1082.2902,696.791" fill="none" id="ListPasswordsCommand-to-App" style="stroke:#181818;stroke-width:1;"/><polygon fill="#181818" points="1087.38,693.6139,1077.6272,694.9863,1083.1385,696.2615,1081.8633,701.7727,1087.38,693.6139" style="stroke:#181818;stroke-width:1;"/></g><!--link GeneratePasswordCommand to App--><g class="link" data-entity-1="ent0011" data-entity-2="ent0013" data-link-type="dependency" data-source-line="52" id="lnk35"><path d="M1027.83,672.0939 C1049.72,672.0939 1064.98,672.0939 1081.46,672.0939" fill="none" id="GeneratePasswordCommand-to-App" style="stroke:#181818;stroke-width:1;"/><polygon fill="#181818" points="1087.46,672.0939,1078.46,668.0939,1082.46,672.0939,1078.46,676.0939,1087.46,672.0939" style="stroke:#181818;stroke-width:1;"/></g><!--link App to CreateUserHandler--><g class="link" data-entity-1="ent0013" data-entity-2="ent0015" data-link-type="dependency" data-source-line="54" id="lnk36"><path d="M1152.83,693.5039 C1163.83,700.3439 1176.44,707.5639 1188.53,713.0939 C1203.64,720.0039 1214.5636,724.3296 1230.6636,729.7496" fill="none" id="App-to-CreateUserHandler" style="stroke:#181818;stroke-width:1;"/><polygon fill="#181818" points="1236.35,731.6639,1229.0966,725.0015,1231.6113,730.0687,1226.5442,732.5834,1236.35,731.6639" style="stroke:#181818;stroke-width:1;"/></g><!--link App to ListPasswordsHandler--><g class="link" data-entity-1="ent0013" data-entity-2="ent0016" data-link-type="dependency" data-source-line="55" id="lnk37"><path d="M1152.82,672.0939 C1173.1,672.0939 1194.48,672.0939 1221.01,672.0939" fill="none" id="App-to-ListPasswordsHandler" style="stroke:#181818;stroke-width:1;"/><polygon fill="#181818" points="1227.01,672.0939,1218.01,668.0939,1222.01,672.0939,1218.01,676.0939,1227.01,672.0939" style="stroke:#181818;stroke-width:1;"/></g><!--link App to GeneratePasswordHandler--><g class="link" data-entity-1="ent0013" data-entity-2="ent0017" data-link-type="dependency" data-source-line="56" id="lnk38"><path d="M1152.83,650.6839 C1163.83,643.8439 1176.44,636.6239 1188.53,631.0939 C1202.38,624.7639 1211.8062,620.9452 1226.6062,615.8552" fill="none" id="App-to-GeneratePasswordHandler" style="stroke:#181818;stroke-width:1;"/><polygon fill="#181818" points="1232.28,613.9039,1222.4684,613.0484,1227.5518,615.53,1225.0702,620.6135,1232.28,613.9039" style="stroke:#181818;stroke-width:1;"/></g><!--link CreateUserHandler to Authentication Service--><g class="link" data-entity-1="ent0015" data-entity-2="ent0020" data-link-type="dependency" data-source-line="58" id="lnk39"><path d="M1397.63,732.1839 C1406.56,727.0839 1414.79,720.8139 1421.37,713.0939 C1469.22,656.9639 1416.94,612.7839 1457.37,551.0939 C1473.48,526.5139 1494.5341,509.8959 1517.6141,495.9559" fill="none" id="CreateUserHandler-to-Authentication Service" style="stroke:#181818;stroke-width:1;"/><polygon fill="#181818" points="1522.75,492.8539,1512.9781,494.083,1518.4701,495.4389,1517.1142,500.9309,1522.75,492.8539" style="stroke:#181818;stroke-width:1;"/></g><!--link CreateUserHandler to DB--><g class="link" data-entity-1="ent0015" data-entity-2="ent0025" data-link-type="dependency" data-source-line="59" id="lnk40"><path d="M1397.52,733.8239 C1406.76,728.4539 1415.11,721.6739 1421.37,713.0939 C1490.85,617.9339 1400.39,287.2239 1457.37,184.0939 C1471.41,158.6839 1491.8662,142.1223 1515.1262,128.4623" fill="none" id="CreateUserHandler-to-DB" style="stroke:#181818;stroke-width:1;"/><polygon fill="#181818" points="1520.3,125.4239,1510.5137,126.5324,1515.9885,127.9559,1514.565,133.4307,1520.3,125.4239" style="stroke:#181818;stroke-width:1;"/></g><!--link CreateUserHandler to Event--><g class="link" data-entity-1="ent0015" data-entity-2="ent0018" data-link-type="dependency" data-source-line="60" id="lnk41"><path d="M1397.71,754.0939 C1442.85,754.0939 1491.19,754.0939 1526.62,754.0939" fill="none" id="CreateUserHandler-to-Event" style="stroke:#181818;stroke-width:1;"/><polygon fill="#181818" points="1532.62,754.0939,1523.62,750.0939,1527.62,754.0939,1523.62,758.0939,1532.62,754.0939" style="stroke:#181818;stroke-width:1;"/></g><!--link ListPasswordsHandler to Authentication Service--><g class="link" data-entity-1="ent0016" data-entity-2="ent0020" data-link-type="dependency" data-source-line="62" id="lnk42"><path d="M1397.25,648.2739 C1406.03,643.5039 1414.32,637.8339 1421.37,631.0939 C1449.56,604.1539 1432.79,581.3539 1457.37,551.0939 C1476.51,527.5339 1498.8785,510.5542 1521.8785,496.1142" fill="none" id="ListPasswordsHandler-to-Authentication Service" style="stroke:#181818;stroke-width:1;"/><polygon fill="#181818" points="1526.96,492.9239,1517.2108,494.3217,1522.7254,495.5825,1521.4646,501.0971,1526.96,492.9239" style="stroke:#181818;stroke-width:1;"/></g><!--link ListPasswordsHandler to Key Derivation--><g class="link" data-entity-1="ent0016" data-entity-2="ent0021" data-link-type="dependency" data-source-line="63" id="lnk43"><path d="M1402.05,648.4439 C1409.4,643.6839 1416.05,637.9639 1421.37,631.0939 C1499.6,530.1939 1377.72,445.8739 1457.37,346.0939 C1469.32,331.1339 1481.5295,323.526 1499.5695,317.496" fill="none" id="ListPasswordsHandler-to-Key Derivation" style="stroke:#181818;stroke-width:1;"/><polygon fill="#181818" points="1505.26,315.5939,1495.4562,314.6534,1500.5179,317.179,1497.9923,322.2407,1505.26,315.5939" style="stroke:#181818;stroke-width:1;"/></g><!--link ListPasswordsHandler to Encryption Service--><g class="link" data-entity-1="ent0016" data-entity-2="ent0022" data-link-type="dependency" data-source-line="64" id="lnk44"><path d="M1401.21,648.4839 C1408.82,643.7139 1415.75,637.9739 1421.37,631.0939 C1479.3,560.1039 1398.44,498.2539 1457.37,428.0939 C1466.61,417.0939 1473.568,411.4927 1486.808,405.6027" fill="none" id="ListPasswordsHandler-to-Encryption Service" style="stroke:#181818;stroke-width:1;"/><polygon fill="#181818" points="1492.29,403.1639,1482.4411,403.1674,1487.7217,405.1962,1485.6928,410.4767,1492.29,403.1639" style="stroke:#181818;stroke-width:1;"/></g><!--link ListPasswordsHandler to DB--><g class="link" data-entity-1="ent0016" data-entity-2="ent0025" data-link-type="dependency" data-source-line="65" id="lnk45"><path d="M1402.86,648.3639 C1409.95,643.6239 1416.32,637.9239 1421.37,631.0939 C1480.63,550.9739 1408.64,271.0239 1457.37,184.0939 C1471.62,158.6739 1492.2463,142.0524 1515.5563,128.3624" fill="none" id="ListPasswordsHandler-to-DB" style="stroke:#181818;stroke-width:1;"/><polygon fill="#181818" points="1520.73,125.3239,1510.9437,126.4326,1516.4186,127.856,1514.9951,133.3309,1520.73,125.3239" style="stroke:#181818;stroke-width:1;"/></g><!--link ListPasswordsHandler to Event--><g class="link" data-entity-1="ent0016" data-entity-2="ent0018" data-link-type="dependency" data-source-line="66" id="lnk46"><path d="M1391.2,695.9239 C1437.57,711.0039 1489.8642,728.0181 1527.0042,740.0981" fill="none" id="ListPasswordsHandler-to-Event" style="stroke:#181818;stroke-width:1;"/><polygon fill="#181818" points="1532.71,741.9539,1525.3886,735.3663,1527.9552,740.4074,1522.9141,742.974,1532.71,741.9539" style="stroke:#181818;stroke-width:1;"/></g><!--link GeneratePasswordHandler to Authentication Service--><g class="link" data-entity-1="ent0017" data-entity-2="ent0020" data-link-type="dependency" data-source-line="68" id="lnk47"><path d="M1367.45,566.3339 C1411.75,545.0639 1470.9509,516.6503 1515.2209,495.4003" fill="none" id="GeneratePasswordHandler-to-Authentication Service" style="stroke:#181818;stroke-width:1;"/><polygon fill="#181818" points="1520.63,492.8039,1510.7854,493.0925,1516.1224,494.9676,1514.2473,500.3046,1520.63,492.8039" style="stroke:#181818;stroke-width:1;"/></g><!--link GeneratePasswordHandler to Key Derivation--><g class="link" data-entity-1="ent0017" data-entity-2="ent0021" data-link-type="dependency" data-source-line="69" id="lnk48"><path d="M1325.29,566.3239 C1341.37,518.0139 1384.26,407.7239 1457.37,346.0939 C1471.06,334.5539 1482.6177,328.1847 1499.4277,322.1047" fill="none" id="GeneratePasswordHandler-to-Key Derivation" style="stroke:#181818;stroke-width:1;"/><polygon fill="#181818" points="1505.07,320.0639,1495.2461,319.3635,1500.3681,321.7645,1497.9671,326.8866,1505.07,320.0639" style="stroke:#181818;stroke-width:1;"/></g><!--link GeneratePasswordHandler to Encryption Service--><g class="link" data-entity-1="ent0017" data-entity-2="ent0022" data-link-type="dependency" data-source-line="70" id="lnk49"><path d="M1332.61,566.3539 C1355.3,531.4439 1402.12,466.2739 1457.37,428.0939 C1467.99,420.7639 1474.5449,416.9134 1486.7549,411.7434" fill="none" id="GeneratePasswordHandler-to-Encryption Service" style="stroke:#181818;stroke-width:1;"/><polygon fill="#181818" points="1492.28,409.4039,1482.4327,409.2297,1487.6757,411.3535,1485.552,416.5965,1492.28,409.4039" style="stroke:#181818;stroke-width:1;"/></g><!--link GeneratePasswordHandler to Password Generator--><g class="link" data-entity-1="ent0017" data-entity-2="ent0023" data-link-type="dependency" data-source-line="71" id="lnk50"><path d="M1321.51,566.3239 C1331.62,506.9339 1365.94,350.6239 1457.37,264.0939 C1465.76,256.1539 1470.4243,252.3785 1481.0143,247.1785" fill="none" id="GeneratePasswordHandler-to-Password Generator" style="stroke:#181818;stroke-width:1;"/><polygon fill="#181818" points="1486.4,244.5339,1476.5583,244.9103,1481.9119,246.7377,1480.0844,252.0913,1486.4,244.5339" style="stroke:#181818;stroke-width:1;"/></g><!--link GeneratePasswordHandler to DB--><g class="link" data-entity-1="ent0017" data-entity-2="ent0025" data-link-type="dependency" data-source-line="72" id="lnk51"><path d="M1321.03,566.2539 C1330.63,499.7939 1365.05,309.0839 1457.37,184.0939 C1475.33,159.7739 1497.4939,142.7884 1520.7039,128.5684" fill="none" id="GeneratePasswordHandler-to-DB" style="stroke:#181818;stroke-width:1;"/><polygon fill="#181818" points="1525.82,125.4339,1516.0561,126.7249,1521.5565,128.046,1520.2354,133.5464,1525.82,125.4339" style="stroke:#181818;stroke-width:1;"/></g><!--link GeneratePasswordHandler to Event--><g class="link" data-entity-1="ent0017" data-entity-2="ent0018" data-link-type="dependency" data-source-line="73" id="lnk52"><path d="M1386.99,613.9439 C1398.77,619.0039 1410.65,624.7539 1421.37,631.0939 C1469.65,659.6639 1514.0692,699.3409 1541.9892,726.2409" fill="none" id="GeneratePasswordHandler-to-Event" style="stroke:#181818;stroke-width:1;"/><polygon fill="#181818" points="1546.31,730.4039,1542.6041,721.2789,1542.7093,726.9348,1537.0534,727.04,1546.31,730.4039" style="stroke:#181818;stroke-width:1;"/></g><!--link Event to CLI--><g class="link" data-entity-1="ent0018" data-entity-2="ent0003" data-link-type="dependency" data-source-line="75" id="lnk53"><path d="M1534.54,777.9139 C1505.31,796.5339 1462.18,821.7539 1421.37,837.0939 C1293.64,885.1139 1257.54,901.0939 1121.08,901.0939 C500.1,901.0939 500.1,901.0939 500.1,901.0939 C348.84,901.0939 174.6243,881.4927 104.1843,872.7527" fill="none" id="Event-to-CLI" style="stroke:#181818;stroke-width:1;"/><polygon fill="#181818" points="98.23,872.0139,106.669,877.0917,103.192,872.6296,107.654,869.1525,98.23,872.0139" style="stroke:#181818;stroke-width:1;"/></g><!--link Event to FastAPI--><g class="link" data-entity-1="ent0018" data-entity-2="ent0004" data-link-type="dependency" data-source-line="76" id="lnk54"><path d="M1532.82,766.0639 C1502.98,775.2439 1459.86,787.5839 1421.37,795.0939 C1289.49,820.8139 1255.45,830.0939 1121.08,830.0939 C500.1,830.0939 500.1,830.0939 500.1,830.0939 C357.74,830.0939 196.2738,807.1271 118.1538,794.5571" fill="none" id="Event-to-FastAPI" style="stroke:#181818;stroke-width:1;"/><polygon fill="#181818" points="112.23,793.6039,120.4803,798.9829,117.1665,794.3982,121.7512,791.0845,112.23,793.6039" style="stroke:#181818;stroke-width:1;"/></g><?plantuml-src XLJBJiCm4BpxArOzmQ7Y3v02jBIY1oJ42I7a9ajhaJhHUbEe4F-EapYHcpZkoSxEp3xiYNFyPE02IEts39aYJ5aLMh3Y7E5P6lDTK0OBlLCQOGvhpQWpp61b1VCD7Z67XDAzOYki28KePVebTmYpXMOwbONIR6RmAm3UxZVhztfTIiF9izt_UVJxud2GEeEDF24vmPAAffx3rhgikCcmhLIUVQHjs5nTDq77QlU4al7L8FdHZJBSpMHyu14raXLqO8-TTqZe6alAyXnR_61QrIVNZThNNzayETAulWyCw_lOueYQpwkzs6Aa-0Gty89qL2bsHvnKlBTqbSgwcGvjyZpX2HwGrB61sjGwjLSqOlRNxjegQ53UHkocBPb9bbjfRBYNFTpDG1gxr2fxwJ2VtqvTflD2Z2B2yLOoTi8ur3BxEnNzrW5ZhmmOOTyCI9CU4e4AhQInKJYxJvZAx754impdwMtaeM4FUeH9Buf0PjV2XEkc1DOPaxcStKMuqGlr8fgX_MFSq7yHuTVZnB9r4qsTx8MXuhBHN75wSBIu9FGSn2NrWLneepkJTjC4xKjnzksU1l4F?></g></svg>