<?plantuml 1.2026.2?><svg xmlns="http://www.w3.org/2000/svg" xmlns:xlink="http://www.w3.org/1999/xlink" contentStyleType="text/css" data-diagram-type="SEQUENCE" height="1156px" preserveAspectRatio="none" style="width:1773px;height:1156px;background:#FFFFFF;" version="1.1" viewBox="0 0 1773 1156" width="1773px" zoomAndPan="magnify"><title>Password Engine - Intended Execution Flow</title><defs/><g><text fill="#000000" font-family="sans-serif" font-size="14" font-weight="bold" lengthAdjust="spacing" textLength="294.0688" x="740.6168" y="28.0059">Password Engine - Intended Execution Flow</text><rect fill="none" height="699.2001" style="stroke:#000000;stroke-width:1.5;" width="793.2242" x="973.0783" y="300.1999"/><g class="participant-lifeline" data-entity-uid="part1" data-qualified-name="User" id="part1-lifeline"><g><title>User</title><rect fill="#000000" fill-opacity="0.00000" height="956.0002" width="8" x="18.7769" y="119.5999"/><line style="stroke:#181818;stroke-width:0.5;stroke-dasharray:5,5;" x1="22" x2="22" y1="119.5999" y2="1075.6001"/></g></g><g class="participant-lifeline" data-entity-uid="part2" data-qualified-name="CLI" id="part2-lifeline"><g><title>CLI</title><rect fill="#000000" fill-opacity="0.00000" height="956.0002" width="8" x="328.1403" y="119.5999"/><line style="stroke:#181818;stroke-width:0.5;stroke-dasharray:5,5;" x1="331.2483" x2="331.2483" y1="119.5999" y2="1075.6001"/></g></g><g class="participant-lifeline" data-entity-uid="part3" data-qualified-name="FrontendCommandInput" id="part3-lifeline"><g><title>FrontendCommandInput</title><rect fill="#000000" fill-opacity="0.00000" height="956.0002" width="8" x="521.9464" y="119.5999"/><line style="stroke:#181818;stroke-width:0.5;stroke-dasharray:5,5;" x1="525.0808" x2="525.0808" y1="119.5999" y2="1075.6001"/></g></g><g class="participant-lifeline" data-entity-uid="part4" data-qualified-name="CommandBuilder" id="part4-lifeline"><g><title>build_commands..</title><rect fill="#000000" fill-opacity="0.00000" height="956.0002" width="8" x="679.3799" y="119.5999"/><line style="stroke:#181818;stroke-width:0.5;stroke-dasharray:5,5;" x1="682.8121" x2="682.8121" y1="119.5999" y2="1075.6001"/></g></g><g class="participant-lifeline" data-entity-uid="part5" data-qualified-name="App" id="part5-lifeline"><g><title>App</title><rect fill="#000000" fill-opacity="0.00000" height="956.0002" width="8" x="806.678" y="119.5999"/><line style="stroke:#181818;stroke-width:0.5;stroke-dasharray:5,5;" x1="810.2251" x2="810.2251" y1="119.5999" y2="1075.6001"/></g></g><g class="participant-lifeline" data-entity-uid="part6" data-qualified-name="Handler" id="part6-lifeline"><g><title>Handler</title><rect fill="#000000" fill-opacity="0.00000" height="956.0002" width="8" x="1010.5852" y="119.5999"/><line style="stroke:#181818;stroke-width:0.5;stroke-dasharray:5,5;" x1="1014.0783" x2="1014.0783" y1="119.5999" y2="1075.6001"/></g></g><g class="participant-lifeline" data-entity-uid="part7" data-qualified-name="Auth" id="part7-lifeline"><g><title>Authentication Service</title><rect fill="#000000" fill-opacity="0.00000" height="956.0002" width="8" x="1161.7514" y="119.5999"/><line style="stroke:#181818;stroke-width:0.5;stroke-dasharray:5,5;" x1="1165.1087" x2="1165.1087" y1="119.5999" y2="1075.6001"/></g></g><g class="participant-lifeline" data-entity-uid="part8" data-qualified-name="KDF" id="part8-lifeline"><g><title>Key Derivation</title><rect fill="#000000" fill-opacity="0.00000" height="956.0002" width="8" x="1300.9079" y="119.5999"/><line style="stroke:#181818;stroke-width:0.5;stroke-dasharray:5,5;" x1="1304.3941" x2="1304.3941" y1="119.5999" y2="1075.6001"/></g></g><g class="participant-lifeline" data-entity-uid="part9" data-qualified-name="Crypto" id="part9-lifeline"><g><title>Encryption Service</title><rect fill="#000000" fill-opacity="0.00000" height="956.0002" width="8" x="1428.7734" y="119.5999"/><line style="stroke:#181818;stroke-width:0.5;stroke-dasharray:5,5;" x1="1432.4217" x2="1432.4217" y1="119.5999" y2="1075.6001"/></g></g><g class="participant-lifeline" data-entity-uid="part10" data-qualified-name="Generator" id="part10-lifeline"><g><title>Password Generator</title><rect fill="#000000" fill-opacity="0.00000" height="956.0002" width="8" x="1575.3149" y="119.5999"/><line style="stroke:#181818;stroke-width:0.5;stroke-dasharray:5,5;" x1="1579.1252" x2="1579.1252" y1="119.5999" y2="1075.6001"/></g></g><g class="participant-lifeline" data-entity-uid="part11" data-qualified-name="DB" id="part11-lifeline"><g><title>DB</title><rect fill="#000000" fill-opacity="0.00000" height="956.0002" width="8" x="1674.5047" y="119.5999"/><line style="stroke:#181818;stroke-width:0.5;stroke-dasharray:5,5;" x1="1678.5047" x2="1678.5047" y1="119.5999" y2="1075.6001"/></g></g><g class="participant-lifeline" data-entity-uid="part12" data-qualified-name="Event" id="part12-lifeline"><g><title>Event</title><rect fill="#000000" fill-opacity="0.00000" height="956.0002" width="8" x="1727.4036" y="119.5999"/><line style="stroke:#181818;stroke-width:0.5;stroke-dasharray:5,5;" x1="1730.5047" x2="1730.5047" y1="119.5999" y2="1075.6001"/></g></g><g class="participant participant-head" data-entity-uid="part1" data-qualified-name="User" id="part1-head"><text fill="#000000" font-family="sans-serif" font-size="14" lengthAdjust="spacing" textLength="29.5539" x="5" y="115.8059">User</text><ellipse cx="22.7769" cy="51.2999" fill="#E2E2F0" rx="8" ry="8" style="stroke:#181818;stroke-width:0.5;"/><path d="M22.7769,59.2999 L22.7769,86.2999 M9.7769,67.2999 L35.7769,67.2999 M22.7769,86.2999 L9.7769,101.2999 M22.7769,86.2999 L35.7769,101.2999" fill="none" style="stroke:#181818;stroke-width:0.5;"/></g><g class="participant participant-tail" data-entity-uid="part1" data-qualified-name="User" id="part1-tail"><text fill="#000000" font-family="sans-serif" font-size="14" lengthAdjust="spacing" textLength="29.5539" x="5" y="1087.606">User</text><ellipse cx="22.7769" cy="1099.9" fill="#E2E2F0" rx="8" ry="8" style="stroke:#181818;stroke-width:0.5;"/><path d="M22.7769,1107.9 L22.7769,1134.9 M9.7769,1115.9 L35.7769,1115.9 M22.7769,1134.9 L9.7769,1149.9 M22.7769,1134.9 L35.7769,1149.9" fill="none" style="stroke:#181818;stroke-width:0.5;"/></g><g class="participant participant-head" data-entity-uid="part2" data-qualified-name="CLI" id="part2-head"><rect fill="#E2E2F0" height="30.7999" rx="2.5" ry="2.5" style="stroke:#181818;stroke-width:0.5;" width="35.7839" x="314.2483" y="87.7999"/><text fill="#000000" font-family="sans-serif" font-size="14" lengthAdjust="spacing" textLength="21.7839" x="321.2483" y="107.8059">CLI</text></g><g class="participant participant-tail" data-entity-uid="part2" data-qualified-name="CLI" id="part2-tail"><rect fill="#E2E2F0" height="30.7999" rx="2.5" ry="2.5" style="stroke:#181818;stroke-width:0.5;" width="35.7839" x="314.2483" y="1074.6001"/><text fill="#000000" font-family="sans-serif" font-size="14" lengthAdjust="spacing" textLength="21.7839" x="321.2483" y="1094.606">CLI</text></g><g class="participant participant-head" data-entity-uid="part3" data-qualified-name="FrontendCommandInput" id="part3-head"><rect fill="#E2E2F0" height="30.7999" rx="2.5" ry="2.5" style="stroke:#181818;stroke-width:0.5;" width="165.7314" x="443.0808" y="87.7999"/><text fill="#000000" font-family="sans-serif" font-size="14" lengthAdjust="spacing" textLength="151.7314" x="450.0808" y="107.8059">FrontendCommandInput</text></g><g class="participant participant-tail" data-entity-uid="part3" data-qualified-name="FrontendCommandInput" id="part3-tail"><rect fill="#E2E2F0" height="30.7999" rx="2.5" ry="2.5" style="stroke:#181818;stroke-width:0.5;" width="165.7314" x="443.0808" y="1074.6001"/><text fill="#000000" font-family="sans-serif" font-size="14" lengthAdjust="spacing" textLength="151.7314" x="450.0808" y="1094.606">FrontendCommandInput</text></g><g class="participant participant-head" data-entity-uid="part4" data-qualified-name="CommandBuilder" id="part4-head"><rect fill="#E2E2F0" height="30.7999" rx="2.5" ry="2.5" style="stroke:#181818;stroke-width:0.5;" width="129.1355" x="618.8121" y="87.7999"/><text fill="#000000" font-family="sans-serif" font-size="14" lengthAdjust="spacing" textLength="115.1355" x="625.8121" y="107.8059">build_commands()</text></g><g class="participant participant-tail" data-entity-uid="part4" data-qualified-name="CommandBuilder" id="part4-tail"><rect fill="#E2E2F0" height="30.7999" rx="2.5" ry="2.5" style="stroke:#181818;stroke-width:0.5;" width="129.1355" x="618.8121" y="1074.6001"/><text fill="#000000" font-family="sans-serif" font-size="14" lengthAdjust="spacing" textLength="115.1355" x="625.8121" y="1094.606">build_commands()</text></g><g class="participant participant-head" data-entity-uid="part5" data-qualified-name="App" id="part5-head"><rect fill="#E2E2F0" height="30.7999" rx="2.5" ry="2.5" style="stroke:#181818;stroke-width:0.5;" width="38.9059" x="791.2251" y="87.7999"/><text fill="#000000" font-family="sans-serif" font-size="14" lengthAdjust="spacing" textLength="24.9059" x="798.2251" y="107.8059">App</text></g><g class="participant participant-tail" data-entity-uid="part5" data-qualified-name="App" id="part5-tail"><rect fill="#E2E2F0" height="30.7999" rx="2.5" ry="2.5" style="stroke:#181818;stroke-width:0.5;" width="38.9059" x="791.2251" y="1074.6001"/><text fill="#000000" font-family="sans-serif" font-size="14" lengthAdjust="spacing" textLength="24.9059" x="798.2251" y="1094.606">App</text></g><g class="participant participant-head" data-entity-uid="part6" data-qualified-name="Handler" id="part6-head"><rect fill="#E2E2F0" height="30.7999" rx="2.5" ry="2.5" style="stroke:#181818;stroke-width:0.5;" width="63.0138" x="983.0783" y="87.7999"/><text fill="#000000" font-family="sans-serif" font-size="14" lengthAdjust="spacing" textLength="49.0138" x="990.0783" y="107.8059">Handler</text></g><g class="participant participant-tail" data-entity-uid="part6" data-qualified-name="Handler" id="part6-tail"><rect fill="#E2E2F0" height="30.7999" rx="2.5" ry="2.5" style="stroke:#181818;stroke-width:0.5;" width="63.0138" x="983.0783" y="1074.6001"/><text fill="#000000" font-family="sans-serif" font-size="14" lengthAdjust="spacing" textLength="49.0138" x="990.0783" y="1094.606">Handler</text></g><g class="participant participant-head" data-entity-uid="part7" data-qualified-name="Auth" id="part7-head"><rect fill="#E2E2F0" height="30.7999" rx="2.5" ry="2.5" style="stroke:#181818;stroke-width:0.5;" width="153.2854" x="1089.1087" y="87.7999"/><text fill="#000000" font-family="sans-serif" font-size="14" lengthAdjust="spacing" textLength="139.2854" x="1096.1087" y="107.8059">Authentication Service</text></g><g class="participant participant-tail" data-entity-uid="part7" data-qualified-name="Auth" id="part7-tail"><rect fill="#E2E2F0" height="30.7999" rx="2.5" ry="2.5" style="stroke:#181818;stroke-width:0.5;" width="153.2854" x="1089.1087" y="1074.6001"/><text fill="#000000" font-family="sans-serif" font-size="14" lengthAdjust="spacing" textLength="139.2854" x="1096.1087" y="1094.606">Authentication Service</text></g><g class="participant participant-head" data-entity-uid="part8" data-qualified-name="KDF" id="part8-head"><rect fill="#E2E2F0" height="30.7999" rx="2.5" ry="2.5" style="stroke:#181818;stroke-width:0.5;" width="105.0276" x="1252.3941" y="87.7999"/><text fill="#000000" font-family="sans-serif" font-size="14" lengthAdjust="spacing" textLength="91.0276" x="1259.3941" y="107.8059">Key Derivation</text></g><g class="participant participant-tail" data-entity-uid="part8" data-qualified-name="KDF" id="part8-tail"><rect fill="#E2E2F0" height="30.7999" rx="2.5" ry="2.5" style="stroke:#181818;stroke-width:0.5;" width="105.0276" x="1252.3941" y="1074.6001"/><text fill="#000000" font-family="sans-serif" font-size="14" lengthAdjust="spacing" textLength="91.0276" x="1259.3941" y="1094.606">Key Derivation</text></g><g class="participant participant-head" data-entity-uid="part9" data-qualified-name="Crypto" id="part9-head"><rect fill="#E2E2F0" height="30.7999" rx="2.5" ry="2.5" style="stroke:#181818;stroke-width:0.5;" width="130.7035" x="1367.4217" y="87.7999"/><text fill="#000000" font-family="sans-serif" font-size="14" lengthAdjust="spacing" textLength="116.7035" x="1374.4217" y="107.8059">Encryption Service</text></g><g class="participant participant-tail" data-entity-uid="part9" data-qualified-name="Crypto" id="part9-tail"><rect fill="#E2E2F0" height="30.7999" rx="2.5" ry="2.5" style="stroke:#181818;stroke-width:0.5;" width="130.7035" x="1367.4217" y="1074.6001"/><text fill="#000000" font-family="sans-serif" font-size="14" lengthAdjust="spacing" textLength="116.7035" x="1374.4217" y="1094.606">Encryption Service</text></g><g class="participant participant-head" data-entity-uid="part10" data-qualified-name="Generator" id="part10-head"><rect fill="#E2E2F0" height="30.7999" rx="2.5" ry="2.5" style="stroke:#181818;stroke-width:0.5;" width="142.3795" x="1508.1252" y="87.7999"/><text fill="#000000" font-family="sans-serif" font-size="14" lengthAdjust="spacing" textLength="128.3795" x="1515.1252" y="107.8059">Password Generator</text></g><g class="participant participant-tail" data-entity-uid="part10" data-qualified-name="Generator" id="part10-tail"><rect fill="#E2E2F0" height="30.7999" rx="2.5" ry="2.5" style="stroke:#181818;stroke-width:0.5;" width="142.3795" x="1508.1252" y="1074.6001"/><text fill="#000000" font-family="sans-serif" font-size="14" lengthAdjust="spacing" textLength="128.3795" x="1515.1252" y="1094.606">Password Generator</text></g><g class="participant participant-head" data-entity-uid="part11" data-qualified-name="DB" id="part11-head"><text fill="#000000" font-family="sans-serif" font-size="14" lengthAdjust="spacing" textLength="19.4459" x="1665.7817" y="115.8059">DB</text><path d="M1660.5047,66.7999 C1660.5047,56.7999 1678.5047,56.7999 1678.5047,56.7999 C1678.5047,56.7999 1696.5047,56.7999 1696.5047,66.7999 L1696.5047,92.7999 C1696.5047,102.7999 1678.5047,102.7999 1678.5047,102.7999 C1678.5047,102.7999 1660.5047,102.7999 1660.5047,92.7999 L1660.5047,66.7999" fill="#E2E2F0" style="stroke:#181818;stroke-width:0.5;"/><path d="M1660.5047,66.7999 C1660.5047,76.7999 1678.5047,76.7999 1678.5047,76.7999 C1678.5047,76.7999 1696.5047,76.7999 1696.5047,66.7999" fill="none" style="stroke:#181818;stroke-width:0.5;"/></g><g class="participant participant-tail" data-entity-uid="part11" data-qualified-name="DB" id="part11-tail"><text fill="#000000" font-family="sans-serif" font-size="14" lengthAdjust="spacing" textLength="19.4459" x="1665.7817" y="1087.606">DB</text><path d="M1660.5047,1101.4 C1660.5047,1091.4 1678.5047,1091.4 1678.5047,1091.4 C1678.5047,1091.4 1696.5047,1091.4 1696.5047,1101.4 L1696.5047,1127.4 C1696.5047,1137.4 1678.5047,1137.4 1678.5047,1137.4 C1678.5047,1137.4 1660.5047,1137.4 1660.5047,1127.4 L1660.5047,1101.4" fill="#E2E2F0" style="stroke:#181818;stroke-width:0.5;"/><path d="M1660.5047,1101.4 C1660.5047,1111.4 1678.5047,1111.4 1678.5047,1111.4 C1678.5047,1111.4 1696.5047,1111.4 1696.5047,1101.4" fill="none" style="stroke:#181818;stroke-width:0.5;"/></g><g class="participant participant-head" data-entity-uid="part12" data-qualified-name="Event" id="part12-head"><rect fill="#E2E2F0" height="30.7999" rx="2.5" ry="2.5" style="stroke:#181818;stroke-width:0.5;" width="49.7979" x="1706.5047" y="87.7999"/><text fill="#000000" font-family="sans-serif" font-size="14" lengthAdjust="spacing" textLength="35.7979" x="1713.5047" y="107.8059">Event</text></g><g class="participant participant-tail" data-entity-uid="part12" data-qualified-name="Event" id="part12-tail"><rect fill="#E2E2F0" height="30.7999" rx="2.5" ry="2.5" style="stroke:#181818;stroke-width:0.5;" width="49.7979" x="1706.5047" y="1074.6001"/><text fill="#000000" font-family="sans-serif" font-size="14" lengthAdjust="spacing" textLength="35.7979" x="1713.5047" y="1094.606">Event</text></g><g class="message" data-entity-1="part1" data-entity-2="part2" id="msg1"><polygon fill="#181818" points="320.1403,162.7999,330.1403,166.7999,320.1403,170.7999,324.1403,166.7999" style="stroke:#181818;stroke-width:1;"/><line style="stroke:#181818;stroke-width:1;" x1="22.7769" x2="326.1403" y1="166.7999" y2="166.7999"/><text fill="#000000" font-family="sans-serif" font-size="13" lengthAdjust="spacing" textLength="79.4691" x="29.7769" y="145.6769">run command</text><text fill="#000000" font-family="sans-serif" font-size="13" lengthAdjust="spacing" textLength="72.9691" x="29.7769" y="161.2769">(createuser /</text><text fill="#000000" font-family="sans-serif" font-size="13" lengthAdjust="spacing" text-decoration="line-through" textLength="89.5701" x="106.36" y="161.2769">list-passwords /</text><text fill="#000000" font-family="sans-serif" font-size="13" lengthAdjust="spacing" textLength="115.5962" x="199.5441" y="161.2769">generate-password)</text></g><g class="message" data-entity-1="part2" data-entity-2="part3" id="msg2"><polygon fill="#181818" points="513.9464,192.3999,523.9464,196.3999,513.9464,200.3999,517.9464,196.3999" style="stroke:#181818;stroke-width:1;"/><line style="stroke:#181818;stroke-width:1;" x1="332.1403" x2="519.9464" y1="196.3999" y2="196.3999"/><text fill="#000000" font-family="sans-serif" font-size="13" lengthAdjust="spacing" textLength="169.8062" x="339.1403" y="190.8769">parse args / prompt if needed</text></g><g class="message" data-entity-1="part3" data-entity-2="part4" id="msg3"><polygon fill="#181818" points="671.3799,221.9999,681.3799,225.9999,671.3799,229.9999,675.3799,225.9999" style="stroke:#181818;stroke-width:1;"/><line style="stroke:#181818;stroke-width:1;" x1="525.9464" x2="677.3799" y1="225.9999" y2="225.9999"/><text fill="#000000" font-family="sans-serif" font-size="13" lengthAdjust="spacing" textLength="89.5961" x="532.9464" y="220.4769">structured input</text></g><g class="message" data-entity-1="part4" data-entity-2="part5" id="msg4"><polygon fill="#181818" points="798.678,251.5999,808.678,255.5999,798.678,259.5999,802.678,255.5999" style="stroke:#181818;stroke-width:1;"/><line style="stroke:#181818;stroke-width:1;" x1="683.3799" x2="804.678" y1="255.5999" y2="255.5999"/><text fill="#000000" font-family="sans-serif" font-size="13" lengthAdjust="spacing" textLength="103.2981" x="690.3799" y="250.0769">build command(s)</text></g><g class="message" data-entity-1="part5" data-entity-2="part6" id="msg5"><polygon fill="#181818" points="1002.5852,281.1999,1012.5852,285.1999,1002.5852,289.1999,1006.5852,285.1999" style="stroke:#181818;stroke-width:1;"/><line style="stroke:#181818;stroke-width:1;" x1="810.678" x2="1008.5852" y1="285.1999" y2="285.1999"/><text fill="#000000" font-family="sans-serif" font-size="13" lengthAdjust="spacing" textLength="179.9072" x="817.678" y="279.6769">resolve and dispatch command</text></g><path d="M973.0783,300.1999 L1033.2493,300.1999 L1033.2493,307.7999 L1023.2493,317.7999 L973.0783,317.7999 L973.0783,300.1999" fill="#EEEEEE" style="stroke:#000000;stroke-width:1.5;"/><rect fill="none" height="699.2001" style="stroke:#000000;stroke-width:1.5;" width="793.2242" x="973.0783" y="300.1999"/><text fill="#000000" font-family="sans-serif" font-size="13" font-weight="bold" lengthAdjust="spacing" textLength="15.171" x="988.0783" y="313.2769">alt</text><text fill="#000000" font-family="sans-serif" font-size="11" font-weight="bold" lengthAdjust="spacing" textLength="62.9635" x="1048.2493" y="312.4189">[createuser]</text><g class="message" data-entity-1="part6" data-entity-2="part7" id="msg6"><polygon fill="#181818" points="1153.7514,335.4,1163.7514,339.4,1153.7514,343.4,1157.7514,339.4" style="stroke:#181818;stroke-width:1;"/><line style="stroke:#181818;stroke-width:1;" x1="1014.5852" x2="1159.7514" y1="339.4" y2="339.4"/><text fill="#000000" font-family="sans-serif" font-size="13" lengthAdjust="spacing" textLength="127.1661" x="1021.5852" y="333.877">hash/store credentials</text></g><g class="message" data-entity-1="part6" data-entity-2="part11" id="msg7"><polygon fill="#181818" points="1666.5047,365,1676.5047,369,1666.5047,373,1670.5047,369" style="stroke:#181818;stroke-width:1;"/><line style="stroke:#181818;stroke-width:1;" x1="1014.5852" x2="1672.5047" y1="369" y2="369"/><text fill="#000000" font-family="sans-serif" font-size="13" lengthAdjust="spacing" textLength="65.0261" x="1021.5852" y="363.477">create user</text></g><g class="message" data-entity-1="part6" data-entity-2="part12" id="msg8"><polygon fill="#181818" points="1719.4036,394.6,1729.4036,398.6,1719.4036,402.6,1723.4036,398.6" style="stroke:#181818;stroke-width:1;"/><line style="stroke:#181818;stroke-width:1;" x1="1014.5852" x2="1725.4036" y1="398.6" y2="398.6"/><text fill="#000000" font-family="sans-serif" font-size="13" lengthAdjust="spacing" textLength="110.5261" x="1021.5852" y="393.077">emit success result</text></g><line style="stroke:#000000;stroke-width:1;stroke-dasharray:2,2;" x1="973.0783" x2="1766.3025" y1="407.6" y2="407.6"/><text fill="#000000" font-family="sans-serif" font-size="11" font-weight="bold" lengthAdjust="spacing" textLength="83.7424" x="978.0783" y="417.8189">[list passwords]</text><g class="message" data-entity-1="part6" data-entity-2="part7" id="msg9"><polygon fill="#181818" points="1153.7514,439.3999,1163.7514,443.3999,1153.7514,447.3999,1157.7514,443.3999" style="stroke:#181818;stroke-width:1;"/><line style="stroke:#181818;stroke-width:1;" x1="1014.5852" x2="1159.7514" y1="443.3999" y2="443.3999"/><text fill="#000000" font-family="sans-serif" font-size="13" lengthAdjust="spacing" textLength="97.5261" x="1021.5852" y="437.8769">verify credentials</text></g><g class="message" data-entity-1="part7" data-entity-2="part6" id="msg10"><polygon fill="#181818" points="1025.5852,468.9999,1015.5852,472.9999,1025.5852,476.9999,1021.5852,472.9999" style="stroke:#181818;stroke-width:1;"/><line style="stroke:#181818;stroke-width:1;stroke-dasharray:2,2;" x1="1019.5852" x2="1164.7514" y1="472.9999" y2="472.9999"/><text fill="#000000" font-family="sans-serif" font-size="13" lengthAdjust="spacing" textLength="78.0521" x="1031.5852" y="467.4769">authenticated</text></g><g class="message" data-entity-1="part6" data-entity-2="part8" id="msg11"><polygon fill="#181818" points="1292.9079,498.5999,1302.9079,502.5999,1292.9079,506.5999,1296.9079,502.5999" style="stroke:#181818;stroke-width:1;"/><line style="stroke:#181818;stroke-width:1;" x1="1014.5852" x2="1298.9079" y1="502.5999" y2="502.5999"/><text fill="#000000" font-family="sans-serif" font-size="13" lengthAdjust="spacing" textLength="59.2411" x="1021.5852" y="497.0769">derive key</text></g><g class="message" data-entity-1="part8" data-entity-2="part6" id="msg12"><polygon fill="#181818" points="1025.5852,528.1999,1015.5852,532.1999,1025.5852,536.1999,1021.5852,532.1999" style="stroke:#181818;stroke-width:1;"/><line style="stroke:#181818;stroke-width:1;stroke-dasharray:2,2;" x1="1019.5852" x2="1303.9079" y1="532.1999" y2="532.1999"/><text fill="#000000" font-family="sans-serif" font-size="13" lengthAdjust="spacing" textLength="83.8111" x="1031.5852" y="526.6769">encryption key</text></g><g class="message" data-entity-1="part6" data-entity-2="part11" id="msg13"><polygon fill="#181818" points="1666.5047,557.8,1676.5047,561.8,1666.5047,565.8,1670.5047,561.8" style="stroke:#181818;stroke-width:1;"/><line style="stroke:#181818;stroke-width:1;" x1="1014.5852" x2="1672.5047" y1="561.8" y2="561.8"/><text fill="#000000" font-family="sans-serif" font-size="13" lengthAdjust="spacing" textLength="154.6221" x="1021.5852" y="556.277">fetch encrypted passwords</text></g><g class="message" data-entity-1="part11" data-entity-2="part6" id="msg14"><polygon fill="#181818" points="1025.5852,587.4,1015.5852,591.4,1025.5852,595.4,1021.5852,591.4" style="stroke:#181818;stroke-width:1;"/><line style="stroke:#181818;stroke-width:1;stroke-dasharray:2,2;" x1="1019.5852" x2="1677.5047" y1="591.4" y2="591.4"/><text fill="#000000" font-family="sans-serif" font-size="13" lengthAdjust="spacing" textLength="99.7101" x="1031.5852" y="585.877">encrypted entries</text></g><g class="message" data-entity-1="part6" data-entity-2="part9" id="msg15"><polygon fill="#181818" points="1420.7734,617,1430.7734,621,1420.7734,625,1424.7734,621" style="stroke:#181818;stroke-width:1;"/><line style="stroke:#181818;stroke-width:1;" x1="1014.5852" x2="1426.7734" y1="621" y2="621"/><text fill="#000000" font-family="sans-serif" font-size="13" lengthAdjust="spacing" textLength="85.2541" x="1021.5852" y="615.477">decrypt entries</text></g><g class="message" data-entity-1="part9" data-entity-2="part6" id="msg16"><polygon fill="#181818" points="1025.5852,646.6,1015.5852,650.6,1025.5852,654.6,1021.5852,650.6" style="stroke:#181818;stroke-width:1;"/><line style="stroke:#181818;stroke-width:1;stroke-dasharray:2,2;" x1="1019.5852" x2="1431.7734" y1="650.6" y2="650.6"/><text fill="#000000" font-family="sans-serif" font-size="13" lengthAdjust="spacing" textLength="90.3111" x="1031.5852" y="645.077">plaintext results</text></g><g class="message" data-entity-1="part6" data-entity-2="part12" id="msg17"><polygon fill="#181818" points="1719.4036,676.2,1729.4036,680.2,1719.4036,684.2,1723.4036,680.2" style="stroke:#181818;stroke-width:1;"/><line style="stroke:#181818;stroke-width:1;" x1="1014.5852" x2="1725.4036" y1="680.2" y2="680.2"/><text fill="#000000" font-family="sans-serif" font-size="13" lengthAdjust="spacing" textLength="103.2981" x="1021.5852" y="674.677">emit password list</text></g><line style="stroke:#000000;stroke-width:1;stroke-dasharray:2,2;" x1="973.0783" x2="1766.3025" y1="689.2" y2="689.2"/><text fill="#000000" font-family="sans-serif" font-size="11" font-weight="bold" lengthAdjust="spacing" textLength="107.5792" x="978.0783" y="699.4189">[generate password]</text><g class="message" data-entity-1="part6" data-entity-2="part7" id="msg18"><polygon fill="#181818" points="1153.7514,720.9999,1163.7514,724.9999,1153.7514,728.9999,1157.7514,724.9999" style="stroke:#181818;stroke-width:1;"/><line style="stroke:#181818;stroke-width:1;" x1="1014.5852" x2="1159.7514" y1="724.9999" y2="724.9999"/><text fill="#000000" font-family="sans-serif" font-size="13" lengthAdjust="spacing" textLength="97.5261" x="1021.5852" y="719.4769">verify credentials</text></g><g class="message" data-entity-1="part7" data-entity-2="part6" id="msg19"><polygon fill="#181818" points="1025.5852,750.5999,1015.5852,754.5999,1025.5852,758.5999,1021.5852,754.5999" style="stroke:#181818;stroke-width:1;"/><line style="stroke:#181818;stroke-width:1;stroke-dasharray:2,2;" x1="1019.5852" x2="1164.7514" y1="754.5999" y2="754.5999"/><text fill="#000000" font-family="sans-serif" font-size="13" lengthAdjust="spacing" textLength="78.0521" x="1031.5852" y="749.0769">authenticated</text></g><g class="message" data-entity-1="part6" data-entity-2="part8" id="msg20"><polygon fill="#181818" points="1292.9079,780.2,1302.9079,784.2,1292.9079,788.2,1296.9079,784.2" style="stroke:#181818;stroke-width:1;"/><line style="stroke:#181818;stroke-width:1;" x1="1014.5852" x2="1298.9079" y1="784.2" y2="784.2"/><text fill="#000000" font-family="sans-serif" font-size="13" lengthAdjust="spacing" textLength="59.2411" x="1021.5852" y="778.677">derive key</text></g><g class="message" data-entity-1="part8" data-entity-2="part6" id="msg21"><polygon fill="#181818" points="1025.5852,809.8,1015.5852,813.8,1025.5852,817.8,1021.5852,813.8" style="stroke:#181818;stroke-width:1;"/><line style="stroke:#181818;stroke-width:1;stroke-dasharray:2,2;" x1="1019.5852" x2="1303.9079" y1="813.8" y2="813.8"/><text fill="#000000" font-family="sans-serif" font-size="13" lengthAdjust="spacing" textLength="83.8111" x="1031.5852" y="808.277">encryption key</text></g><g class="message" data-entity-1="part6" data-entity-2="part10" id="msg22"><polygon fill="#181818" points="1567.3149,839.4,1577.3149,843.4,1567.3149,847.4,1571.3149,843.4" style="stroke:#181818;stroke-width:1;"/><line style="stroke:#181818;stroke-width:1;" x1="1014.5852" x2="1573.3149" y1="843.4" y2="843.4"/><text fill="#000000" font-family="sans-serif" font-size="13" lengthAdjust="spacing" textLength="153.1792" x="1021.5852" y="837.877">generate secure password</text></g><g class="message" data-entity-1="part10" data-entity-2="part6" id="msg23"><polygon fill="#181818" points="1025.5852,869,1015.5852,873,1025.5852,877,1021.5852,873" style="stroke:#181818;stroke-width:1;"/><line style="stroke:#181818;stroke-width:1;stroke-dasharray:2,2;" x1="1019.5852" x2="1578.3149" y1="873" y2="873"/><text fill="#000000" font-family="sans-serif" font-size="13" lengthAdjust="spacing" textLength="117.7802" x="1031.5852" y="867.477">generated password</text></g><g class="message" data-entity-1="part6" data-entity-2="part9" id="msg24"><polygon fill="#181818" points="1420.7734,898.6,1430.7734,902.6,1420.7734,906.6,1424.7734,902.6" style="stroke:#181818;stroke-width:1;"/><line style="stroke:#181818;stroke-width:1;" x1="1014.5852" x2="1426.7734" y1="902.6" y2="902.6"/><text fill="#000000" font-family="sans-serif" font-size="13" lengthAdjust="spacing" textLength="101.8681" x="1021.5852" y="897.077">encrypt password</text></g><g class="message" data-entity-1="part9" data-entity-2="part6" id="msg25"><polygon fill="#181818" points="1025.5852,928.2,1015.5852,932.2,1025.5852,936.2,1021.5852,932.2" style="stroke:#181818;stroke-width:1;"/><line style="stroke:#181818;stroke-width:1;stroke-dasharray:2,2;" x1="1019.5852" x2="1431.7734" y1="932.2" y2="932.2"/><text fill="#000000" font-family="sans-serif" font-size="13" lengthAdjust="spacing" textLength="116.3241" x="1031.5852" y="926.677">encrypted password</text></g><g class="message" data-entity-1="part6" data-entity-2="part11" id="msg26"><polygon fill="#181818" points="1666.5047,957.8,1676.5047,961.8,1666.5047,965.8,1670.5047,961.8" style="stroke:#181818;stroke-width:1;"/><line style="stroke:#181818;stroke-width:1;" x1="1014.5852" x2="1672.5047" y1="961.8" y2="961.8"/><text fill="#000000" font-family="sans-serif" font-size="13" lengthAdjust="spacing" textLength="148.8372" x="1021.5852" y="956.277">store encrypted password</text></g><g class="message" data-entity-1="part6" data-entity-2="part12" id="msg27"><polygon fill="#181818" points="1719.4036,987.4001,1729.4036,991.4001,1719.4036,995.4001,1723.4036,991.4001" style="stroke:#181818;stroke-width:1;"/><line style="stroke:#181818;stroke-width:1;" x1="1014.5852" x2="1725.4036" y1="991.4001" y2="991.4001"/><text fill="#000000" font-family="sans-serif" font-size="13" lengthAdjust="spacing" textLength="203.7492" x="1021.5852" y="985.8771">emit generated password / success</text></g><g class="message" data-entity-1="part5" data-entity-2="part2" id="msg28"><polygon fill="#181818" points="343.1403,1024.0001,333.1403,1028.0001,343.1403,1032.0001,339.1403,1028.0001" style="stroke:#181818;stroke-width:1;"/><line style="stroke:#181818;stroke-width:1;" x1="337.1403" x2="809.678" y1="1028.0001" y2="1028.0001"/><text fill="#000000" font-family="sans-serif" font-size="13" lengthAdjust="spacing" textLength="81.6401" x="349.1403" y="1022.4771">stream events</text></g><g class="message" data-entity-1="part2" data-entity-2="part1" id="msg29"><polygon fill="#181818" points="33.7769,1053.6001,23.7769,1057.6001,33.7769,1061.6001,29.7769,1057.6001" style="stroke:#181818;stroke-width:1;"/><line style="stroke:#181818;stroke-width:1;" x1="27.7769" x2="331.1403" y1="1057.6001" y2="1057.6001"/><text fill="#000000" font-family="sans-serif" font-size="13" lengthAdjust="spacing" textLength="80.2101" x="39.7769" y="1052.0771">display output</text></g><?plantuml-src pLGxZzim3DxrAuXCoM3Sxg70vTK6rw50qQr0ePEPHAWi2vASk_pxal8hIdpjsiqcFr8VFpwYZWRXcmpXhV4LxEn9MuG23ZQYhP0ixwZQg1iBUzEy2I5LR3py2EY5apvgfPsq4JPV3zd_tZSfmwQfQschWtLjp0CwnxhLfa8FCi3YbRz_gSuHbgj55l3iNFR_XK3cZiLp6yyf5N-W9RjCrB-ZlsY5USANxJvXN_0AM_Jwah0vPkElBZO9jhEAVpvCznajUidYC7fKT3GlH2MZV9K1ORlE8dSNeYe4Qmh59vOIIl2jXLwAdtQfFCg8BIEUe2YC3h5m_HCXcKxTEpYQLu8JKRwvLj03n82eI7_YUEURsaNGHx28r7On6yJayhQL4A9lLMmzZOfEJRv3K0nrZe2fkqD9ox0IR2PltqSk6KDZBiJ9Lb3fu6HKvo601iz4c6GGC0Ro2zpt4iuod9y2QOsCh7W0f0avTBicO9S77XEbLX00QnqXj4fX2CohDL6W8RrOUHYLdsLneLawNkyO95-HbIkd6IN1iqmycYLKF9G8l_5ANZRbyJWDP0Uvh_A8B60Fe_xSqYR0R3Q24IUlyQwsVX6OLCBTe7fNdiuPgMc0tcElNlYBpWEl96udyp3De--_LNfQ-t9Y7UXc-epy1CjJ3o7L1vMEklSSRc6pmZ-sUsOokXtv5pHhqYDHEXlzXWZa1UttkJjVT1PGre2S8WoNA5suCkssaLTesiW7umy0?></g></svg>